Coordinates
version=1
nRows=19
nColumns=24
inDegrees=yes

Units are S.I. units (second, meters, Newtons, ...)
Angles are in degrees.

endheader
time	pelvis_tilt	pelvis_list	pelvis_rotation	pelvis_tx	pelvis_ty	pelvis_tz	hip_flexion_r	hip_adduction_r	hip_rotation_r	knee_angle_r	ankle_angle_r	subtalar_angle_r	mtp_angle_r	hip_flexion_l	hip_adduction_l	hip_rotation_l	knee_angle_l	ankle_angle_l	subtalar_angle_l	mtp_angle_l	lumbar_extension	lumbar_bending	lumbar_rotation
      0.57500000	     -1.35486049	      2.28621508	     -1.19308139	     -0.80868249	      1.05142249	      0.34306637	     23.49273832	      1.74998357	     -8.48576798	     -1.24062839	      4.59782759	     -1.10474457	     -0.14619647	    -12.76219720	      7.46774381	     -2.19939847	     -6.18302626	     11.89272743	      6.33420660	      0.13074989	      5.89865432	     -0.16902727	     -3.18515236
      0.57916667	     -1.37673609	      2.29850345	     -1.17715254	     -0.80304682	      1.05096631	      0.34313024	     23.41836322	      1.83347140	     -8.48364658	     -1.38285406	      4.63450834	     -1.14125929	     -0.15503621	    -12.89721066	      7.46967020	     -2.19621905	     -6.52134192	     11.86843947	      6.32144631	      0.11465151	      5.97721518	     -0.14730884	     -3.22908523
      0.58333333	     -1.39873857	      2.29828021	     -1.16045781	     -0.79731135	      1.05054449	      0.34318194	     23.33832215	      1.92483860	     -8.46905582	     -1.57721085	      4.66815803	     -1.18125191	     -0.16221459	    -13.02214875	      7.45753102	     -2.20307642	     -6.88586011	     11.83395478	      6.31408906	      0.10159462	      6.04577215	     -0.12803734	     -3.26340705
      0.58750000	     -1.41305057	      2.29687789	     -1.14344983	     -0.79153720	      1.05015583	      0.34319608	     23.25245758	      2.01041732	     -8.43060151	     -1.82109128	      4.69411025	     -1.22789944	     -0.16894982	    -13.14178987	      7.44346191	     -2.21309768	     -7.27760703	     11.78599792	      6.31898634	      0.08958153	      6.10916761	     -0.10170097	     -3.29629264
      0.59166667	     -1.42707604	      2.28810721	     -1.11764162	     -0.78573630	      1.04979058	      0.34317727	     23.16325499	      2.09480175	     -8.35929042	     -2.10966563	      4.69640619	     -1.26821069	     -0.17404234	    -13.24672529	      7.41906528	     -2.21842888	     -7.70228630	     11.73034424	      6.32771882	      0.08057098	      6.16742784	     -0.07053350	     -3.32242949
      0.59583333	     -1.42001285	      2.25842464	     -1.13499159	     -0.77984777	      1.04947186	      0.34335894	     23.03208861	      2.23273550	     -8.12530143	     -2.38587109	      4.72222265	     -1.62339855	     -0.20910999	    -13.34020128	      7.35762791	     -2.51769427	     -8.18570405	     11.49139391	      6.49415653	      0.02683244	      6.14855147	     -0.05386940	     -3.49108051
      0.60000000	     -1.41022495	      2.26119984	     -1.16620206	     -0.77404422	      1.04916586	      0.34347468	     22.88427902	      2.32983630	     -7.62059428	     -2.62240540	      4.37994071	     -2.01140608	     -0.26050143	    -13.44230552	      7.34546706	     -2.53253586	     -8.67030995	     11.49446344	      6.77493062	     -0.03238011	      6.22155096	     -0.03912533	     -3.60087262
      0.60416667	     -1.40187835	      2.25463344	     -1.10779242	     -0.76820779	      1.04893773	      0.34335209	     22.76544234	      2.37872913	     -7.53188338	     -2.98450957	      4.33565658	     -2.04490158	     -0.26398851	    -13.50828853	      7.31078259	     -2.54329998	     -9.20517564	     11.43551876	      6.76697495	     -0.03692188	      6.29192403	      0.00897168	     -3.60371199
      0.60833333	     -1.39845109	      2.24388192	     -1.06413133	     -0.76234435	      1.04872530	      0.34324966	     22.64457851	      2.43419020	     -7.38745589	     -3.31475273	      4.22866930	     -2.09255709	     -0.26874642	    -13.54711350	      7.27001723	     -2.58525268	     -9.80661166	     11.32922109	      6.78358749	     -0.04187579	      6.34196663	      0.06858428	     -3.61357298
      0.61250000	     -1.41669640	      2.22447835	     -1.20402491	     -0.75639979	      1.04842967	      0.34365316	     22.52907449	      2.59946455	     -6.77297892	     -3.59460393	      3.50553203	     -2.77361812	     -0.30793496	    -13.54040041	      7.22237634	     -3.03904652	    -10.39943366	     10.87154583	      7.20223882	     -0.06087991	      6.40611559	      0.08408809	     -3.67221883
      0.61666667	     -1.44082323	      2.19218043	     -1.19089295	     -0.75047256	      1.04824355	      0.34392453	     22.36598609	      2.72612427	     -6.08656211	     -3.79605276	      3.00181040	     -3.69822906	     -0.35148378	    -13.48981254	      7.11001217	     -3.31413678	    -11.10698494	     10.84891008	      7.67208889	     -0.04800893	      6.40539075	      0.17060435	     -3.67136034
      0.62083333	     -1.41419747	      2.15638521	     -1.11839881	     -0.74452287	      1.04819979	      0.34376098	     22.19516303	      2.77666442	     -5.93536160	     -4.12314711	      2.90331981	     -3.68094394	     -0.35290399	    -13.49334892	      7.02247878	     -3.32502078	    -11.81748491	     10.75606889	      7.66886865	     -0.04634357	      6.49072930	      0.21970753	     -3.66611210
      0.62500000	     -1.42608326	      2.10652125	     -1.18741556	     -0.73848142	      1.04807006	      0.34398076	     22.05926574	      2.91393699	     -5.52611834	     -4.39136597	      2.13512833	     -3.96946537	     -0.36991683	    -13.42673198	      6.91563915	     -3.71392402	    -12.55186935	     10.26296358	      8.02883456	     -0.01957212	      6.52986773	      0.29625328	     -3.69151835
      0.62916667	     -1.45078694	      2.04967240	     -1.20407029	     -0.73243734	      1.04799222	      0.34425343	     21.90855762	      3.05152119	     -4.99031070	     -4.62364378	      1.46973995	     -4.64131127	     -0.38633169	    -13.31069162	      6.76711515	     -4.08098022	    -13.37137760	      9.93558780	      8.50353448	      0.05031315	      6.59886409	      0.39368940	     -3.69978492
      0.63333333	     -1.45235681	      1.96285770	     -1.09253668	     -0.72632053	      1.04805047	      0.34416701	     21.72212978	      3.14000949	     -4.74266540	     -4.87733901	      1.24186050	     -4.72734640	     -0.38798790	    -13.20413211	      6.57454889	     -4.20213690	    -14.24388686	      9.77367490	      8.58310093	      0.07508491	      6.60456911	      0.46068756	     -3.69946495
      0.63750000	     -1.41988084	      1.91526125	     -1.20243577	     -0.72031196	      1.04807285	      0.34446200	     21.55954526	      3.27016884	     -4.34607195	     -5.18792500	      0.41486932	     -5.20715148	     -0.39635318	    -13.10686667	      6.45500875	     -4.63284563	    -15.10812518	      9.19168739	      9.11568551	      0.15835994	      6.69893301	      0.58325765	     -3.73238182
      0.64166667	     -1.41044678	      1.82644829	     -1.19377333	     -0.71420405	      1.04816865	      0.34472929	     21.37275192	      3.41286318	     -3.90200008	     -5.44000302	     -0.19807262	     -5.83667292	     -0.39934233	    -12.94752687	      6.23690204	     -5.02080159	    -16.06858835	      8.75367248	      9.60687069	      0.28270561	      6.71059281	      0.71382258	     -3.75277728
      0.64583333	     -1.37740352	      1.72978096	     -1.19298202	     -0.70808033	      1.04832335	      0.34494547	     21.17109524	      3.54996097	     -3.52874245	     -5.71772270	     -0.74546605	     -6.27812442	     -0.39776019	    -12.79627088	      6.01172996	     -5.36615481	    -17.05953296	      8.29670106	     10.01796777	      0.42033231	      6.75011450	      0.81543332	     -3.76163099
      0.65000000	     -1.29693638	      1.66260921	     -1.11085266	     -0.70210723	      1.04859920	      0.34477041	     20.95013410	      3.58529053	     -3.37365913	     -6.07480940	     -0.86807809	     -6.27280296	     -0.39616850	    -12.65989361	      5.83340624	     -5.44228529	    -18.11982609	      8.12577173	     10.04122904	      0.43865874	      6.80036089	      0.92133329	     -3.76391194
